<svg id="レイヤー_1" data-name="レイヤー 1" xmlns="http://www.w3.org/2000/svg" viewBox="0 0 512 512"><title>icon</title><path d="M303.1,135.63c-51.71,14.89-99.33,27.92-164.35,51.65-20,7.45-28.16,12.1-37.89,12.1-23,0-39.42-16.29-43-27.45a15.71,15.71,0,0,1-.52-5.12,14.19,14.19,0,0,1,.52-4.65c10.24,5.58,20,8.37,33.28,8.37,8.19,0,25.08-2.79,59.9-13,44.54-13,109-31.64,163.84-46.06,17.92-4.66,31.23-7,43.52-11.17,8.7-2.79,22-3.72,32.25-3.72,24.07,0,43,7.91,43,21.4,0,9.77-7.17,13-15.87,12.56-13.83-.93-28.67-1.39-43-.93-24.06.47-51.2,3.73-77.31,24.2-22.53,18.15-34.82,47.46-41.47,73.52a346,346,0,0,0-11.78,89.81c0,58.16,31.75,82.82,73.73,83.75,11.77.93,23.55-2.32,36.35-2.32,17.41,0,29.7,9.77,29.7,18.61,0,13.49-12.8,15.82-42.5,15.82-48.64,0-75.26-12.1-96.77-32.57-12.8-12.1-28.16-38.16-28.67-78.18s10.75-89.8,30.72-124.24c12.8-22.33,30.21-44.2,57.34-60.95Z"/></svg>