<svg id="レイヤー_1" data-name="レイヤー 1" xmlns="http://www.w3.org/2000/svg" viewBox="0 0 2000 500"><title>ロゴ</title><path d="M174.41,154.3c-34.76,11-66.76,20.65-110.47,38.2C50.52,198,45,201.45,38.47,201.45c-15.49,0-26.5-12-28.91-20.31a13.07,13.07,0,0,1-.34-3.79,11.87,11.87,0,0,1,.34-3.44,40.47,40.47,0,0,0,22.37,6.2c5.51,0,16.87-2.07,40.27-9.64,29.94-9.63,73.3-23.4,110.12-34.07,12.05-3.44,21-5.16,29.26-8.26,5.85-2.06,14.8-2.75,21.68-2.75,16.17,0,28.91,5.85,28.91,15.83,0,7.23-4.82,9.64-10.67,9.29a268.71,268.71,0,0,0-28.91-.69c-16.18.35-34.41,2.76-52,17.9-15.14,13.42-23.4,35.1-27.87,54.37a280.26,280.26,0,0,0-7.92,66.42c0,43,21.34,61.26,49.56,61.95,7.92.69,15.83-1.72,24.43-1.72,11.71,0,20,7.23,20,13.77,0,10-8.6,11.7-28.56,11.7-32.69,0-50.59-8.95-65-24.09-8.61-8.95-18.93-28.22-19.28-57.82s7.23-66.42,20.65-91.89c8.61-16.52,20.31-32.69,38.55-45.08Z"/><path d="M399.82,193.87c-9.29,3.1-17.2,5.17-25.46,5.17-9.29,0-17.9-3.45-26.16-10.33-5.16-4.82-6.88-10-7.22-13.42-.35-1,1-1.72,3.09-1,6.54,2.06,9.64,2.41,20.31,2.41,10,0,24.09-1.72,34.41-3.44,30.29-4.82,63.33-10.33,92.58-15.15,0-12,0-20-.35-25.46-.68-11.7-2.75-16.18-13.42-22.37-2.75-1.72-3.78-2.76-3.78-4.48,0-3.78,6.54-6.88,15.14-6.88,10.32,0,23.75,5.51,23.75,12a24.47,24.47,0,0,1-1.38,8.95c-1.72,5.85-3.79,14.8-4.47,36.48,10.66-1.37,22.71-2.75,33.38-3.1-4.48-3.78-8.61-7.91-13.08-11.7a1.88,1.88,0,0,1-1-1.72,1.85,1.85,0,0,1,2.75-1.37c15.83,8.94,21.68,10.66,52.65,12.73C607,152.92,616,156.71,616,166.34c0,6.54-4.13,10.33-10.67,10.33-3.44,0-8.6-.69-21.68-4.13-15.83-4.48-26.84-6.2-41.64-6.2-8.61-.34-21.34,1-35.79,2.76-.35,16.86-.69,40.26-1,57.47,6.54,9.29,11,25.81,11,42,0,64.7-31.67,100.84-84.32,121.83-2.41,1-4.13-.34-4.13-2.06a2.51,2.51,0,0,1,1.38-2.07c33.38-21.68,58.5-47.83,66.76-91.2-4.82,4.82-9.63,7.23-18.93,7.23-24.43,0-33.38-25.81-33.38-46.12,0-26.84,17.55-41,34.42-41a34.23,34.23,0,0,1,13.42,3.1c0-16.18.34-30.29.34-46.81C460.4,176.32,432.86,181.83,399.82,193.87Zm52.66,61.26c0,14.11,7.23,30.63,23.4,30.63,8.6,0,17.21-7.23,16.86-30.28,0-14.8-3.09-29.26-20-29.26C461.08,226.22,452.48,239,452.48,255.13Z"/><path d="M802.48,190.43c0-17.55,2.41-45.08,2.75-67.79,0-14.8-5.85-18.93-15.14-24.44-1.38-.69-2.07-1.72-1.72-2.41.69-1.72,4.81-3.1,9.29-3.1,14.45,0,33.73,10.67,33.73,25.47a40.36,40.36,0,0,1-2.76,14.8c-4.82,8.95-11.35,41.3-11.35,68.49,0,14.79,5.16,24.09,16.86,24.09,4.47,0,7.57-1.38,21.34-6.89,6.88-2.75,10.66-3.78,13.76-3.78,6.88,0,12.39,4.13,12.39,10.67,0,7.57-3.44,8.94-21,13.42-47.84,12.73-79.5,41.64-79.5,76,0,25.47,18.24,41,53.69,41,14.45,0,23-.69,36.82-3.79,5.85-1.72,8.6-2.41,14.11-2.41,11,0,20.31,4.82,20.31,14.46,0,6.19-5.17,9.29-17.9,11.35-7.92,1.72-25.47,3.1-43.71,3.1-53,0-78.81-25.81-78.81-60.22,0-32,17.9-56.1,59.88-83.63C808,229.67,802.48,218,802.48,190.43Z"/><path d="M1142.49,189.4c6.89,0,14.8,3.1,28.22,14.8,36.14,32,90.51,68.48,131.81,84.66,10,3.78,15.49,7.91,15.49,17.55a11.4,11.4,0,0,1-11,11.36c-8.26,0-12.39-2.07-20-6.2-52.65-25.46-84.66-59.19-129-100.14-4.82-4.48-10.67-8.26-15.49-8.26-5.16,0-10.32,3.44-14.8,7.91-12,12-22.71,23.75-39.92,42-6.54,7.91-11.7,13.76-15.14,17.2-7.23,7.23-13.08,8.26-19.27,8.26-11,0-20.65-9.63-20.65-22.71a20.52,20.52,0,0,1,.69-5.16c4.82,2.06,8.26,2.75,10.67,2.75,4.47,0,11-1.72,20.65-8.6,17.55-12.74,37.85-31.66,57.12-46.81C1127.69,193.19,1135.27,189.4,1142.49,189.4Zm149.71-28.22a36.31,36.31,0,1,1-72.62,0c0-19.27,16.18-35.79,36.48-35.79C1276,125.39,1292.2,141.91,1292.2,161.18Zm-61.6,0c0,14.45,11.35,25.81,25.12,25.81a25.56,25.56,0,0,0,25.81-25.81c0-13.77-11.36-25.12-25.81-25.12A24.82,24.82,0,0,0,1230.6,161.18Z"/><path d="M1430.54,237.58c12.74,0,37.52-1,79.5-3.1,49.56-2.41,77.78-4.13,92.92-4.81,6.88-.35,14.8-3.1,22.72-3.1,12.38,0,25.12,8.26,25.12,16.52,0,6.19-4.48,9.63-12.39,9.29-8.26,0-16.52-1.38-24.44-1.38-27.18-.69-53.68-.69-80.53.35-27.53,1-55.06,2.06-96,5.16-13.42,1-17.9,1.72-22.72,3.44a25.57,25.57,0,0,1-8.6,1.72c-8.6,0-19.62-14.45-19.62-25.81,0-3.1,1-6.19,3.79-10C1398.19,235.17,1406.11,237.58,1430.54,237.58Z"/><path d="M1820.81,125.73c0,3.79-1,7.92-2.76,14.46-1,4.13-4.47,25.46-7.91,53.68-4.48,38.55-7.57,84.66-7.57,107.72,0,44.74,13.76,58.51,47.83,58.51,41,0,92.23-26.5,125.62-69.52,1.72-2.41,5.5-.69,4.13,1.38-27.19,54.37-78.47,86.72-125.27,86.72-28.22,0-43.37-6.88-54.38-21-14.11-17.21-15.83-32.7-15.83-62.29,0-15.83,2.07-61.26,5.51-102.9,2.06-25.81,3.78-49.22,3.78-61.26,0-9.29-2.06-18.58-12-24.09a1.89,1.89,0,0,1-1-1.72c0-.69.68-1.38,1.72-2.07a11.69,11.69,0,0,1,6.19-1.37C1803.94,102,1820.81,113,1820.81,125.73Zm77.09,7.57c0-1.37,1.37-2.4,3.09-2.06,10.67,1.38,26.5,7.57,37.86,15.83,8.6,6.19,14.45,14.11,14.45,22.37,0,6.19-4.13,10-9.29,10-4.47,0-7.57-2.41-10.67-7.57-8.26-14.8-21-28.91-34.07-36.48A2.49,2.49,0,0,1,1897.9,133.3Zm26.84-25.81c0-1.37,1-2.41,3.1-2.06a88.22,88.22,0,0,1,40.26,12.39c8.26,5.5,13.42,12.39,13.42,19.61,0,5.51-3.44,9.64-8.26,9.64-3.09,0-5.85-2.06-8.6-5.85-11.7-15.14-23.75-25.81-37.86-31.66A2.51,2.51,0,0,1,1924.74,107.49Z"/></svg>